<?xml version="1.0" encoding="UTF-8"?>
<svg version="1.1" xmlns="http://www.w3.org/2000/svg" width="512" height="512">
<path d="M0 0 C1.69041412 -0.00744736 1.69041412 -0.00744736 3.41497803 -0.01504517 C7.11284009 -0.02954887 10.81065919 -0.03645073 14.50854492 -0.04199219 C15.78387274 -0.04481956 17.05920055 -0.04764694 18.37317467 -0.05056 C24.43549324 -0.06397426 30.49779305 -0.07388179 36.56012517 -0.07776189 C43.48641325 -0.08222291 50.41250206 -0.09969375 57.33872968 -0.12876248 C63.39512387 -0.15327057 69.45143799 -0.16072 75.50787926 -0.16243744 C78.05471567 -0.16543052 80.60155194 -0.17334311 83.14835548 -0.18662262 C124.81212501 -0.38827812 163.19321104 8.05760872 195.17651367 36.16113281 C196.01569336 36.87914062 196.85487305 37.59714844 197.71948242 38.33691406 C226.55150382 63.50346917 244.52194894 100.3059587 247.34792328 138.47636032 C247.6042186 143.77532966 247.59831423 149.07212386 247.57495117 154.37597656 C247.57698305 156.04968898 247.57990359 157.72340052 247.58364868 159.39710999 C247.58802112 162.87184236 247.58180895 166.34634026 247.56762695 169.82104492 C247.55054911 174.21259306 247.56067996 178.60359542 247.57794285 182.99512482 C247.6957835 218.22910505 247.6957835 218.22910505 244.17651367 234.16113281 C243.9522168 235.17844482 243.72791992 236.19575684 243.49682617 237.24389648 C242.90862045 239.62813492 242.24070828 241.94904594 241.48901367 244.28613281 C241.23410156 245.10049805 240.97918945 245.91486328 240.71655273 246.75390625 C234.39412729 266.2801545 224.75446017 283.74013173 211.17651367 299.16113281 C210.3850293 300.08539063 209.59354492 301.00964844 208.77807617 301.96191406 C203.09355842 308.44441616 197.02097094 313.93111674 190.17651367 319.16113281 C188.9003418 320.16080078 188.9003418 320.16080078 187.59838867 321.18066406 C159.15843388 342.76607885 125.28236716 351.57311606 89.94995117 351.05566406 C86.86629894 351.03426014 83.78267017 351.01836646 80.69897461 351.00463867 C78.59680104 350.98393001 76.49473135 350.94348805 74.39331055 350.88354492 C60.42868668 350.12311261 60.42868668 350.12311261 48.54312134 356.32035828 C46.24718401 358.81495701 44.23455314 361.46622654 42.17651367 364.16113281 C38.66883049 367.37743584 34.95614134 370.27110618 31.17651367 373.16113281 C30.55599121 373.64163086 29.93546875 374.12212891 29.29614258 374.6171875 C17.2894923 383.85307233 4.66561209 391.29951213 -8.82348633 398.16113281 C-10.04769287 398.78761719 -10.04769287 398.78761719 -11.29663086 399.42675781 C-45.44900383 416.73118862 -83.62820256 426.24468334 -121.82348633 428.16113281 C-123.40323242 428.25974609 -123.40323242 428.25974609 -125.01489258 428.36035156 C-132.73041905 428.6461118 -139.66222297 427.72669664 -145.70629883 422.54785156 C-150.8533749 416.94077111 -152.3239608 411.26427988 -152.13208008 403.74707031 C-151.28793818 396.6733749 -148.02409442 392.00664995 -142.93286133 387.27441406 C-124.84857676 369.15664008 -107.22370562 341.45491039 -102.82348633 316.16113281 C-102.92380139 312.9392492 -103.83927035 312.14428745 -106.08911133 309.74316406 C-107.08075827 308.81660984 -108.0758011 307.89368204 -109.07348633 306.97363281 C-138.67937572 278.37042247 -152.16558974 239.68231385 -153.0144043 199.17480469 C-153.09873094 192.81492017 -153.10484292 186.45604013 -153.08422852 180.09570312 C-153.0735019 176.16683526 -153.08419007 172.23842447 -153.09692383 168.30957031 C-153.11897558 131.89854922 -153.11897558 131.89854922 -148.69848633 114.59863281 C-148.48675781 113.74696533 -148.2750293 112.89529785 -148.05688477 112.01782227 C-141.44307389 86.74162312 -128.7220408 65.06722181 -110.82348633 46.16113281 C-110.00364258 45.27683594 -109.18379883 44.39253906 -108.33911133 43.48144531 C-80.2145762 14.10877993 -40.09128401 0.04314966 0 0 Z M-53.63598633 117.37207031 C-56.7655808 122.08705146 -57.30249786 126.60459902 -56.82348633 132.16113281 C-55.39727356 138.72171154 -52.02399673 143.00994934 -46.82348633 147.16113281 C-40.28616904 150.6689616 -32.79838937 150.31379542 -25.57055664 150.32226562 C-24.55186493 150.32723053 -23.53317322 150.33219543 -22.48361206 150.33731079 C-19.1229382 150.35188188 -15.76231155 150.35872602 -12.40161133 150.36425781 C-10.05759684 150.37001344 -7.71358235 150.37577112 -5.36956787 150.38153076 C-0.45706972 150.39202639 4.45541214 150.39787846 9.36791992 150.40136719 C15.64671551 150.40684872 21.92529391 150.43087582 28.20402145 150.45933914 C33.04604716 150.47800998 37.888021 150.4831735 42.73007965 150.48470306 C45.04401079 150.48772008 47.35794123 150.4957163 49.67183685 150.50888824 C52.91672559 150.52604147 56.16108953 150.52404572 59.40600586 150.51757812 C60.82470474 150.5314003 60.82470474 150.5314003 62.27206421 150.54550171 C69.77129761 150.4989404 77.54003925 149.54587321 83.61401367 144.78613281 C88.30264682 139.98314275 90.26181857 135.55957887 90.48901367 128.91113281 C90.39276044 123.04931103 88.53407633 118.68070807 84.52807617 114.39941406 C79.89476905 110.22134454 75.62397148 107.91929905 69.26322937 107.89370728 C67.81881973 107.88091232 67.81881973 107.88091232 66.3452301 107.86785889 C64.77804482 107.86921844 64.77804482 107.86921844 63.17919922 107.87060547 C62.06965881 107.86388824 60.96011841 107.85717102 59.81695557 107.85025024 C56.14900229 107.83125261 52.48123184 107.82734506 48.81323242 107.82519531 C46.26121444 107.81876843 43.70919721 107.81204015 41.15718079 107.80502319 C35.80658971 107.79304585 30.45606666 107.78925713 25.10546875 107.79052734 C18.93478887 107.79172787 12.76445925 107.7706404 6.59386796 107.73904002 C0.64315887 107.70965941 -5.30744402 107.70255334 -11.25823021 107.7037468 C-13.78314837 107.7013892 -16.30806922 107.69255682 -18.83294106 107.67708206 C-22.36825068 107.65744409 -25.90266362 107.66325263 -29.43798828 107.67529297 C-30.99606453 107.65843445 -30.99606453 107.65843445 -32.58561707 107.64123535 C-41.56130444 107.71874914 -47.9799681 110.14835138 -53.63598633 117.37207031 Z M9.32885742 202.45019531 C5.7659055 207.74027308 5.42252156 212.90967926 6.17651367 219.16113281 C7.9725918 225.25919447 11.79624 229.82238591 17.17651367 233.16113281 C22.75939847 235.57906426 28.03973906 235.45039477 34.01196289 235.43579102 C35.09238861 235.44090195 36.17281433 235.44601288 37.28598022 235.45127869 C40.85111051 235.46515805 44.41604711 235.46421906 47.98120117 235.46191406 C50.46452913 235.46580201 52.94785643 235.47013688 55.43118286 235.47489929 C60.63456376 235.48235804 65.83787681 235.48207277 71.04125977 235.47680664 C77.70143617 235.47101377 84.36123006 235.48794039 91.02137566 235.51115131 C96.14984759 235.52590055 101.27825271 235.52675869 106.4067421 235.52364159 C108.86187414 235.52415424 111.31700999 235.52938141 113.77212143 235.53945351 C117.20902203 235.55182268 120.64538309 235.54502268 124.08227539 235.53344727 C125.09136963 235.541091 126.10046387 235.54873474 127.14013672 235.55661011 C134.3166959 235.50332545 139.58791197 234.24752915 145.86401367 230.59863281 C150.07908328 226.1557216 153.35933177 220.37694701 153.80151367 214.16113281 C153.31690344 208.0227365 150.59311928 202.28963775 145.98120117 198.22753906 C140.83315676 194.68507286 136.76701634 193.04698189 130.50410461 193.01396179 C129.10178841 193.00322884 129.10178841 193.00322884 127.67114258 192.99227905 C126.65238037 192.98959015 125.63361816 192.98690125 124.58398438 192.98413086 C123.505457 192.97755966 122.42692963 192.97098846 121.3157196 192.96421814 C117.74457733 192.94449946 114.17347708 192.93282539 110.60229492 192.92285156 C108.77117692 192.91673827 108.77117692 192.91673827 106.90306664 192.91050148 C100.44123886 192.88964642 93.97943227 192.87534247 87.51757812 192.8659668 C80.85069243 192.8559139 74.18418724 192.82050841 67.51740742 192.7807951 C62.3846119 192.75462282 57.25189591 192.74627436 52.11903954 192.74268532 C49.66192558 192.73782066 47.20481515 192.72621022 44.74776649 192.70764732 C41.30358185 192.68324494 37.86026064 192.6842235 34.41601562 192.69116211 C33.40737457 192.67835205 32.39873352 192.66554199 31.35952759 192.65234375 C22.20344756 192.71934029 15.01152531 194.98874219 9.32885742 202.45019531 Z " fill="#14AABF" transform="translate(207.823486328125,41.8388671875)"/>
</svg>
